<mxfile host="Electron" modified="2024-01-24T13:36:05.053Z" agent="Mozilla/5.0 (Macintosh; Intel Mac OS X 10_15_7) AppleWebKit/537.36 (KHTML, like Gecko) draw.io/22.1.21 Chrome/120.0.6099.109 Electron/28.1.0 Safari/537.36" etag="QMdJeNkjePQho3J_PKVL" version="22.1.21" type="device">
  <diagram name="Page-1" id="Y0Oy0BEG9HiTITChsQCu">
    <mxGraphModel dx="2522" dy="1466" grid="1" gridSize="10" guides="1" tooltips="1" connect="1" arrows="1" fold="1" page="1" pageScale="1" pageWidth="1169" pageHeight="827" math="0" shadow="0">
      <root>
        <mxCell id="0" />
        <mxCell id="1" parent="0" />
        <mxCell id="uyvofhUXunklhEtFBvyB-19" value="" style="rounded=0;whiteSpace=wrap;html=1;" vertex="1" parent="1">
          <mxGeometry x="230" y="130" width="710" height="480" as="geometry" />
        </mxCell>
        <mxCell id="uyvofhUXunklhEtFBvyB-12" value="" style="ellipse;whiteSpace=wrap;html=1;aspect=fixed;strokeColor=none;" vertex="1" parent="1">
          <mxGeometry x="790" y="510" width="60" height="60" as="geometry" />
        </mxCell>
        <mxCell id="uyvofhUXunklhEtFBvyB-11" value="" style="ellipse;whiteSpace=wrap;html=1;aspect=fixed;strokeColor=none;" vertex="1" parent="1">
          <mxGeometry x="550" y="190" width="60" height="60" as="geometry" />
        </mxCell>
        <mxCell id="uyvofhUXunklhEtFBvyB-9" value="" style="ellipse;whiteSpace=wrap;html=1;aspect=fixed;strokeColor=none;" vertex="1" parent="1">
          <mxGeometry x="310" y="510" width="60" height="60" as="geometry" />
        </mxCell>
        <mxCell id="uyvofhUXunklhEtFBvyB-8" style="edgeStyle=none;rounded=0;orthogonalLoop=1;jettySize=auto;html=1;spacing=2;spacingLeft=0;targetPerimeterSpacing=0;strokeWidth=3;exitX=0;exitY=1;exitDx=0;exitDy=0;" edge="1" parent="1" source="uyvofhUXunklhEtFBvyB-11" target="uyvofhUXunklhEtFBvyB-9">
          <mxGeometry relative="1" as="geometry" />
        </mxCell>
        <mxCell id="uyvofhUXunklhEtFBvyB-1" value="" style="ellipse;whiteSpace=wrap;html=1;aspect=fixed;" vertex="1" parent="1">
          <mxGeometry x="560" y="200" width="40" height="40" as="geometry" />
        </mxCell>
        <mxCell id="uyvofhUXunklhEtFBvyB-2" value="" style="ellipse;whiteSpace=wrap;html=1;aspect=fixed;" vertex="1" parent="1">
          <mxGeometry x="320" y="520" width="40" height="40" as="geometry" />
        </mxCell>
        <mxCell id="uyvofhUXunklhEtFBvyB-14" style="edgeStyle=none;rounded=0;orthogonalLoop=1;jettySize=auto;html=1;entryX=1;entryY=0.5;entryDx=0;entryDy=0;exitX=0;exitY=0.5;exitDx=0;exitDy=0;strokeWidth=3;" edge="1" parent="1" source="uyvofhUXunklhEtFBvyB-12" target="uyvofhUXunklhEtFBvyB-9">
          <mxGeometry relative="1" as="geometry" />
        </mxCell>
        <mxCell id="uyvofhUXunklhEtFBvyB-3" value="" style="ellipse;whiteSpace=wrap;html=1;aspect=fixed;" vertex="1" parent="1">
          <mxGeometry x="800" y="520" width="40" height="40" as="geometry" />
        </mxCell>
        <mxCell id="uyvofhUXunklhEtFBvyB-4" value="Answer" style="text;html=1;strokeColor=none;fillColor=none;align=center;verticalAlign=middle;whiteSpace=wrap;rounded=0;fontSize=18;" vertex="1" parent="1">
          <mxGeometry x="240" y="525" width="60" height="30" as="geometry" />
        </mxCell>
        <mxCell id="uyvofhUXunklhEtFBvyB-5" value="Context" style="text;html=1;strokeColor=none;fillColor=none;align=center;verticalAlign=middle;whiteSpace=wrap;rounded=0;fontSize=18;" vertex="1" parent="1">
          <mxGeometry x="870" y="525" width="60" height="30" as="geometry" />
        </mxCell>
        <mxCell id="uyvofhUXunklhEtFBvyB-6" value="Question" style="text;html=1;strokeColor=none;fillColor=none;align=center;verticalAlign=middle;whiteSpace=wrap;rounded=0;fontSize=18;" vertex="1" parent="1">
          <mxGeometry x="550" y="150" width="60" height="30" as="geometry" />
        </mxCell>
        <mxCell id="uyvofhUXunklhEtFBvyB-7" value="Quality" style="text;html=1;strokeColor=none;fillColor=none;align=center;verticalAlign=middle;whiteSpace=wrap;rounded=0;fontSize=36;" vertex="1" parent="1">
          <mxGeometry x="555" y="384" width="60" height="30" as="geometry" />
        </mxCell>
        <mxCell id="uyvofhUXunklhEtFBvyB-13" style="edgeStyle=none;rounded=0;orthogonalLoop=1;jettySize=auto;html=1;spacing=2;spacingLeft=0;targetPerimeterSpacing=0;strokeWidth=3;exitX=1;exitY=1;exitDx=0;exitDy=0;entryX=0.217;entryY=0;entryDx=0;entryDy=0;entryPerimeter=0;" edge="1" parent="1" source="uyvofhUXunklhEtFBvyB-11" target="uyvofhUXunklhEtFBvyB-12">
          <mxGeometry relative="1" as="geometry">
            <mxPoint x="577" y="256" as="sourcePoint" />
            <mxPoint x="368" y="526" as="targetPoint" />
          </mxGeometry>
        </mxCell>
        <mxCell id="uyvofhUXunklhEtFBvyB-16" value="Precision" style="text;html=1;align=center;verticalAlign=middle;resizable=0;points=[];autosize=1;strokeColor=none;fillColor=none;rotation=53;fontSize=18;" vertex="1" parent="1">
          <mxGeometry x="675" y="335" width="100" height="40" as="geometry" />
        </mxCell>
        <mxCell id="uyvofhUXunklhEtFBvyB-17" value="Contextual Accuracy" style="text;html=1;align=center;verticalAlign=middle;resizable=0;points=[];autosize=1;strokeColor=none;fillColor=none;fontSize=18;" vertex="1" parent="1">
          <mxGeometry x="485" y="555" width="190" height="40" as="geometry" />
        </mxCell>
        <mxCell id="uyvofhUXunklhEtFBvyB-18" value="Answer Completeness" style="text;html=1;align=center;verticalAlign=middle;resizable=0;points=[];autosize=1;strokeColor=none;fillColor=none;fontSize=18;rotation=307;" vertex="1" parent="1">
          <mxGeometry x="330" y="344" width="200" height="40" as="geometry" />
        </mxCell>
      </root>
    </mxGraphModel>
  </diagram>
</mxfile>
